<svg width="18" height="17" viewBox="0 0 18 17" fill="none" xmlns="http://www.w3.org/2000/svg">
<path d="M8.41744 4.04829C8.72025 4.37003 9.22655 4.38537 9.54829 4.08256C9.87003 3.77975 9.88537 3.27345 9.58256 2.95171L8.41744 4.04829ZM8.40013 16.5293C8.69245 16.8606 9.198 16.8922 9.5293 16.5999C9.8606 16.3075 9.89219 15.802 9.59987 15.4707L8.40013 16.5293ZM1.50398 3.42905L0.780122 3.08841L1.50398 3.42905ZM1.37232 3.70882L0.648466 3.36818L1.37232 3.70882ZM1.59824 7.45345L0.920589 7.87864L1.59824 7.45345ZM2.30962 8.41757L2.90949 7.88828L2.30962 8.41757ZM9.59987 15.4707L2.90949 7.88828L1.70975 8.94687L8.40013 16.5293L9.59987 15.4707ZM2.32285 7.10309L2.27589 7.02825L0.920589 7.87864L0.967545 7.95347L2.32285 7.10309ZM2.09618 4.04946L2.22783 3.76969L0.780122 3.08841L0.648466 3.36818L2.09618 4.04946ZM4.23802 2.09264L4.27294 2.08337L3.86218 0.536991L3.82727 0.546266L4.23802 2.09264ZM6.52736 2.3423L6.56326 2.36136L7.3139 0.948378L7.27801 0.929311L6.52736 2.3423ZM7.50986 3.08398L8.41744 4.04829L9.58256 2.95171L8.67498 1.9874L7.50986 3.08398ZM6.56326 2.36136C6.91618 2.54885 7.23596 2.79297 7.50986 3.08398L8.67498 1.9874C8.28115 1.56896 7.82136 1.21796 7.3139 0.948378L6.56326 2.36136ZM6.10713 2.15747C6.25157 2.20862 6.39204 2.2704 6.52736 2.3423L7.27801 0.929311C7.07297 0.820381 6.86014 0.726775 6.64128 0.649262L6.10713 2.15747ZM4.27294 2.08337C4.87783 1.92269 5.51716 1.94852 6.10713 2.15747L6.64128 0.649262C5.74739 0.332674 4.7787 0.293541 3.86218 0.536991L4.27294 2.08337ZM3.24147 2.55932C3.54318 2.34561 3.88068 2.18756 4.23802 2.09264L3.82727 0.546266C3.28558 0.69015 2.77399 0.929726 2.31664 1.25368L3.24147 2.55932ZM2.22783 3.76969C2.45566 3.28556 2.80485 2.8686 3.24147 2.55932L2.31664 1.25368C1.65479 1.72249 1.12547 2.35454 0.780122 3.08841L2.22783 3.76969ZM1.8 5.37441C1.8 4.91634 1.90113 4.46392 2.09618 4.04946L0.648466 3.36818C0.353133 3.99576 0.2 4.68081 0.2 5.37441H1.8ZM2.27589 7.02825C1.96494 6.53267 1.8 5.95947 1.8 5.37441H0.2C0.2 6.2603 0.449749 7.12824 0.920589 7.87864L2.27589 7.02825ZM2.90949 7.88828C2.69298 7.64289 2.49678 7.38029 2.32285 7.10309L0.967545 7.95347C1.1876 8.30419 1.43582 8.63641 1.70975 8.94687L2.90949 7.88828Z" fill="#22262A"/>
<path d="M9.58256 4.04829C9.27975 4.37003 8.77345 4.38537 8.45171 4.08256C8.12997 3.77975 8.11463 3.27345 8.41744 2.95171L9.58256 4.04829ZM9.59987 16.5293C9.30755 16.8606 8.802 16.8922 8.4707 16.5999C8.1394 16.3075 8.10781 15.802 8.40013 15.4707L9.59987 16.5293ZM13.9324 1.31018L14.1378 0.536991L13.9324 1.31018ZM13.9674 1.31945L14.1727 0.546266L13.9674 1.31945ZM16.3561 7.5262L17.0338 7.95139L16.3561 7.5262ZM15.753 8.34656L16.3529 8.87586L15.753 8.34656ZM8.40013 15.4707L15.1532 7.81726L16.3529 8.87586L9.59987 16.5293L8.40013 15.4707ZM15.6268 7.18331L15.6785 7.10101L17.0338 7.95139L16.9821 8.0337L15.6268 7.18331ZM15.9404 4.12717L15.7722 3.76969L17.2199 3.08841L17.3881 3.4459L15.9404 4.12717ZM13.762 2.09264L13.7271 2.08337L14.1378 0.536991L14.1727 0.546266L13.762 2.09264ZM11.4726 2.3423L11.4367 2.36136L10.6861 0.948378L10.722 0.929311L11.4726 2.3423ZM10.4901 3.08398L9.58256 4.04829L8.41744 2.95171L9.32502 1.9874L10.4901 3.08398ZM11.4367 2.36136C11.0838 2.54885 10.764 2.79297 10.4901 3.08398L9.32502 1.9874C9.71885 1.56896 10.1786 1.21796 10.6861 0.948378L11.4367 2.36136ZM11.8929 2.15747C11.7484 2.20862 11.608 2.2704 11.4726 2.3423L10.722 0.929311C10.927 0.820381 11.1399 0.726775 11.3587 0.649262L11.8929 2.15747ZM13.7271 2.08337C13.1222 1.92269 12.4828 1.94852 11.8929 2.15747L11.3587 0.649262C12.2526 0.332674 13.2213 0.293541 14.1378 0.536991L13.7271 2.08337ZM14.7585 2.55932C14.4568 2.34561 14.1193 2.18756 13.762 2.09264L14.1727 0.546266C14.7144 0.69015 15.226 0.929726 15.6834 1.25368L14.7585 2.55932ZM15.7722 3.76969C15.5443 3.28556 15.1952 2.8686 14.7585 2.55932L15.6834 1.25368C16.3452 1.72249 16.8745 2.35454 17.2199 3.08841L15.7722 3.76969ZM16.2 5.28852C16.2 4.88701 16.1114 4.49046 15.9404 4.12717L17.3881 3.4459C17.6594 4.0223 17.8 4.65148 17.8 5.28852H16.2ZM15.6785 7.10101C16.0192 6.55789 16.2 5.9297 16.2 5.28852H17.8C17.8 6.23053 17.5344 7.15345 17.0338 7.95139L15.6785 7.10101ZM15.1532 7.81726C15.328 7.61914 15.4864 7.40712 15.6268 7.18331L16.9821 8.0337C16.7956 8.33102 16.5851 8.61266 16.3529 8.87586L15.1532 7.81726Z" fill="#22262A"/>
</svg>
