<svg width="14" height="14" viewBox="0 0 14 14" fill="none" xmlns="http://www.w3.org/2000/svg">
<path d="M12.1875 0.8125H0.908203C0.410156 0.8125 0 1.25195 0 1.7793V13C0 13.5273 0.410156 13.9375 0.908203 13.9375H12.1875C12.6855 13.9375 13.125 13.5273 13.125 13V1.7793C13.125 1.25195 12.6855 0.8125 12.1875 0.8125ZM3.95508 12.0625H2.02148V5.82227H3.95508V12.0625ZM2.98828 4.94336C2.34375 4.94336 1.8457 4.44531 1.8457 3.83008C1.8457 3.21484 2.34375 2.6875 2.98828 2.6875C3.60352 2.6875 4.10156 3.21484 4.10156 3.83008C4.10156 4.44531 3.60352 4.94336 2.98828 4.94336ZM11.25 12.0625H9.28711V9.01562C9.28711 8.3125 9.28711 7.375 8.29102 7.375C7.26562 7.375 7.11914 8.16602 7.11914 8.98633V12.0625H5.18555V5.82227H7.03125V6.67188H7.06055C7.32422 6.17383 7.96875 5.64648 8.90625 5.64648C10.8691 5.64648 11.25 6.96484 11.25 8.63477V12.0625Z" fill="black"/>
</svg>
