<svg width="140" height="140" viewBox="0 0 140 140" fill="none" xmlns="http://www.w3.org/2000/svg">
<rect width="140" height="140" rx="70" fill="white"/>
<path d="M17.525 79.65C16.4417 79.65 15.6667 79.3417 15.2 78.725C14.7333 78.0917 14.5 77.1583 14.5 75.925C14.5 74.675 15.025 71.15 16.075 65.35L14.75 62.675C16.6333 61.4583 18.35 60.85 19.9 60.85C20.8833 60.85 21.4917 61.3167 21.725 62.25C23.425 62.2 25.6917 61.775 28.525 60.975C28.6583 61.725 28.725 62.3583 28.725 62.875C28.725 63.9417 28.3167 64.7833 27.5 65.4C26.7 66 25.7667 66.3 24.7 66.3C23.6333 66.3 22.5667 66.0417 21.5 65.525C21.5 65.525 21.425 65.9333 21.275 66.75C21.1583 67.4 20.9667 68.3917 20.7 69.725C21.2667 69.8583 21.8 69.925 22.3 69.925C22.9833 69.7917 23.7333 69.6 24.55 69.35C24.6333 69.6333 24.675 70.1 24.675 70.75C24.675 71.3833 24.4167 71.8917 23.9 72.275C23.3833 72.6583 22.8 72.85 22.15 72.85C21.5 72.85 20.8417 72.775 20.175 72.625C19.9917 73.675 19.9 74.4333 19.9 74.9C19.9 76.5167 20.15 77.725 20.65 78.525C19.65 79.275 18.6083 79.65 17.525 79.65ZM36.6389 75.925L36.3889 75.8C35.9389 77 35.2889 77.9417 34.4389 78.625C33.6055 79.2917 32.6722 79.625 31.6389 79.625C30.2222 79.625 29.0889 79.0917 28.2389 78.025C27.3889 76.9583 26.9639 75.5333 26.9639 73.75C26.9639 70.9833 27.8889 68.6667 29.7389 66.8C31.6055 64.9333 33.9222 64 36.6889 64C37.4055 64 38.0639 64.0667 38.6639 64.2C38.7639 64.6667 38.8222 65.075 38.8389 65.425C39.6722 64.8917 40.5305 64.625 41.4139 64.625C42.6305 64.625 43.2389 65.2833 43.2389 66.6C43.2389 67.0667 42.9722 68.475 42.4389 70.825C41.9222 73.175 41.6639 74.9167 41.6639 76.05C41.6639 77.1833 41.9222 77.9667 42.4389 78.4C41.5055 79.2167 40.5305 79.625 39.5139 79.625C38.5139 79.625 37.7805 79.325 37.3139 78.725C36.8639 78.125 36.6389 77.1917 36.6389 75.925ZM31.6639 72.525C31.6639 73.3417 31.8305 73.975 32.1639 74.425C32.5139 74.8583 33.0055 75.075 33.6389 75.075C34.2722 75.075 34.8972 74.8417 35.5139 74.375C36.1305 73.9083 36.6472 73.2667 37.0639 72.45C37.2139 70.7667 37.5389 68.775 38.0389 66.475C36.3555 66.475 34.8722 67.0833 33.5889 68.3C32.3055 69.5167 31.6639 70.925 31.6639 72.525ZM53.7221 67.325C53.1054 67.5083 52.6137 67.775 52.2471 68.125C51.8804 68.4583 51.5554 68.9417 51.2721 69.575C54.0887 69.9917 56.0721 70.5917 57.2221 71.375C58.3721 72.1583 58.9471 73.275 58.9471 74.725C58.9471 75.6417 58.6887 76.4417 58.1721 77.125C57.6554 77.7917 57.0054 78.3 56.2221 78.65C54.6887 79.3 53.1804 79.625 51.6971 79.625C47.4804 79.625 45.3721 78.7167 45.3721 76.9C45.3721 75.9833 45.7804 75.0667 46.5971 74.15C47.0137 74.7333 47.6387 75.2333 48.4721 75.65C49.3221 76.0667 50.1471 76.275 50.9471 76.275C52.3304 76.275 53.1637 75.6667 53.4471 74.45C50.9137 74.15 49.0804 73.5833 47.9471 72.75C46.8137 71.9167 46.2471 70.7417 46.2471 69.225C46.2471 68.025 46.6387 67.0167 47.4221 66.2C48.2221 65.3833 49.2054 64.8167 50.3721 64.5C51.5554 64.1667 52.8804 64 54.3471 64C55.8304 64 57.0471 64.2833 57.9971 64.85C58.9637 65.4 59.4471 66.075 59.4471 66.875C59.4471 67.675 59.1637 68.2917 58.5971 68.725C58.0471 69.1583 57.4387 69.375 56.7721 69.375C56.1221 69.375 55.5221 69.2 54.9721 68.85C54.4387 68.5 54.0221 67.9917 53.7221 67.325ZM75.6115 64C77.6282 64 78.6365 65.0083 78.6365 67.025C78.6365 67.8917 78.3865 69.3583 77.8865 71.425C77.4032 73.4917 77.1615 75.05 77.1615 76.1C77.1615 77.15 77.3365 77.9167 77.6865 78.4C76.8032 79.2167 75.8699 79.625 74.8865 79.625C72.9699 79.625 72.0115 78.5917 72.0115 76.525C72.0115 75.7583 72.2615 74.4583 72.7615 72.625C73.2615 70.7917 73.5115 69.6 73.5115 69.05C73.5115 68.3 73.2282 67.925 72.6615 67.925C72.1949 67.925 71.6615 68.1333 71.0615 68.55C70.4615 68.95 69.8782 69.5 69.3115 70.2C68.7615 70.8833 68.2949 71.7583 67.9115 72.825C67.5282 73.875 67.3365 74.95 67.3365 76.05C67.3365 77.1333 67.5115 77.9167 67.8615 78.4C66.9782 79.2167 66.0449 79.625 65.0615 79.625C63.1449 79.625 62.1865 78.5917 62.1865 76.525C62.1865 75.2917 62.5199 72.7917 63.1865 69.025C63.7532 65.7083 64.0782 63.85 64.1615 63.45L62.7615 61.45C64.8449 60.2333 66.4865 59.625 67.6865 59.625C68.3699 59.625 68.8532 59.7667 69.1365 60.05C69.4199 60.3167 69.5615 60.7667 69.5615 61.4C69.5615 62.6 69.4449 63.9083 69.2115 65.325C68.9782 66.7417 68.7615 67.7833 68.5615 68.45L68.8115 68.575C70.5949 65.525 72.8615 64 75.6115 64ZM89.2225 60.05C89.2225 60.6833 88.8891 61.2333 88.2225 61.7C87.5558 62.15 86.7975 62.375 85.9475 62.375C85.0975 62.375 84.4225 62.2083 83.9225 61.875C83.4391 61.5417 83.1975 61.0917 83.1975 60.525C83.1975 59.7583 83.5558 59.1583 84.2725 58.725C84.9891 58.2917 85.7475 58.075 86.5475 58.075C87.3475 58.075 87.9891 58.2417 88.4725 58.575C88.9725 58.9083 89.2225 59.4 89.2225 60.05ZM84.3475 79.625C83.3141 79.625 82.5641 79.3667 82.0975 78.85C81.6308 78.3333 81.3975 77.55 81.3975 76.5C81.3975 75.4333 81.9308 72.5917 82.9975 67.975L81.5975 65.875C83.6808 64.625 85.3225 64 86.5225 64C87.2058 64 87.6891 64.15 87.9725 64.45C88.2558 64.7333 88.3975 65.2 88.3975 65.85C88.3975 66.1 88.0891 67.5667 87.4725 70.25C86.8558 72.9333 86.5475 74.85 86.5475 76C86.5475 77.15 86.8058 77.95 87.3225 78.4C86.3891 79.2167 85.3975 79.625 84.3475 79.625ZM102.915 65.9C103.848 65.9 104.648 66.275 105.315 67.025C105.998 67.775 106.34 68.8667 106.34 70.3C106.34 71.7167 106.09 73.0333 105.59 74.25C105.09 75.45 104.432 76.4333 103.615 77.2C102.798 77.9667 101.873 78.5667 100.84 79C99.8065 79.4167 98.7482 79.625 97.6648 79.625C95.4815 79.625 93.7565 79.025 92.4898 77.825C91.2232 76.625 90.5898 75.0333 90.5898 73.05C90.5898 70.3667 91.4482 68.1917 93.1648 66.525C94.8982 64.8417 97.0982 64 99.7648 64C100.365 64 100.965 64.0667 101.565 64.2C101.748 64.75 101.848 65.375 101.865 66.075C102.215 65.9583 102.565 65.9 102.915 65.9ZM99.8398 69.375C99.8398 68.9083 99.9482 68.3833 100.165 67.8C100.398 67.2167 100.765 66.75 101.265 66.4C99.0648 66.8667 97.5482 67.7583 96.7148 69.075C95.9982 70.2083 95.6398 71.375 95.6398 72.575C95.6398 73.775 95.8815 74.7417 96.3648 75.475C96.8648 76.1917 97.4982 76.55 98.2648 76.55C99.9648 76.55 101.165 75.4417 101.865 73.225C100.515 72.3917 99.8398 71.1083 99.8398 69.375ZM111.586 79.625C110.603 79.625 109.878 79.3667 109.411 78.85C108.944 78.3333 108.711 77.65 108.711 76.8C108.711 75.95 108.878 74.5667 109.211 72.65C109.561 70.7333 109.919 68.9833 110.286 67.4L108.986 65.4C110.636 64.4667 112.161 64 113.561 64C114.961 64 115.661 64.6333 115.661 65.9C115.661 66.7333 115.469 67.5833 115.086 68.45L115.336 68.575C117.119 65.525 119.386 64 122.136 64C124.153 64 125.161 65.0083 125.161 67.025C125.161 67.8917 124.911 69.3583 124.411 71.425C123.928 73.4917 123.686 75.05 123.686 76.1C123.686 77.15 123.861 77.9167 124.211 78.4C123.328 79.2167 122.394 79.625 121.411 79.625C119.494 79.625 118.536 78.5917 118.536 76.525C118.536 75.7583 118.786 74.4583 119.286 72.625C119.786 70.7917 120.036 69.6 120.036 69.05C120.036 68.3 119.753 67.925 119.186 67.925C118.719 67.925 118.186 68.1333 117.586 68.55C116.986 68.95 116.403 69.5 115.836 70.2C115.286 70.8833 114.819 71.7583 114.436 72.825C114.053 73.875 113.861 74.95 113.861 76.05C113.861 77.1333 114.036 77.9167 114.386 78.4C113.503 79.2167 112.569 79.625 111.586 79.625Z" fill="#22262A"/>
</svg>
